# xmcd
#
# Track frame offsets: 
#        182
#        17972
#        42075
#        63892
#        100305
#        121105
#        150350
#        167655
#        189472
#        210507
#        234895
#        254002
#        278160
#        300102
#        318367
#        346082
#
# Disc length: 4770 seconds
#
# Revision: 1
# Processed by: cddbd v1.5.2PL0 Copyright (c) Steve Scherf et al.
# Submitted via: ExactAudioCopyFreeDBPlugin 1.0
#
DISCID=c512a010
DTITLE=Various Artist - Dreams Of Volume 2
DYEAR=1996
DGENRE=Megamix
TTITLE0=Kenny Loggins - Welcome to Heartlight
TTITLE1=Melissa Etheridge - Like the Way i do
TTITLE2=Don Henley - Boys of Summer
TTITLE3=Midnight Oil - Beds are Burning
TTITLE4=REM - Losing my Religion
TTITLE5=Jim Steinmann - Rock ´n Roll Dreams
TTITLE6=Mike and the Mechanics - Word of Mouth
TTITLE7=Vision Fields - Lyin Eyes
TTITLE8=Lynyrd Skynyrd - Sweet Home Alabama
TTITLE9=Pat Mears - There goes the Rainbow
TTITLE10=Journey - Weel in the Sky
TTITLE11=Icehouse - Great Southern Land
TTITLE12=Outfield - Going Back
TTITLE13=Van Halen - Jump
TTITLE14=Jim Steinmann - Nowhere Fast
TTITLE15=Drafi Deutscher - Marmor Stein umd Eisen bricht
EXTD=YEAR: 1996
EXTT0=
EXTT1=
EXTT2=
EXTT3=
EXTT4=
EXTT5=
EXTT6=
EXTT7=
EXTT8=
EXTT9=
EXTT10=
EXTT11=
EXTT12=
EXTT13=
EXTT14=
EXTT15=
PLAYORDER=
